<svg version="1.2" xmlns="http://www.w3.org/2000/svg" viewBox="0 0 500 500" width="500" height="500">
	<title>lc-icon-svg</title>
	<defs>
		<linearGradient id="g1" x2="1" gradientUnits="userSpaceOnUse" gradientTransform="matrix(366,0,0,48.5,67,246.265)">
			<stop offset="0" stop-color="#ff4b4b"/>
			<stop offset=".231" stop-color="#dfff6e"/>
			<stop offset=".493" stop-color="#4bffdd"/>
			<stop offset=".764" stop-color="#916eff"/>
			<stop offset="1" stop-color="#d700ff"/>
		</linearGradient>
	</defs>
	<style>
		.s0 { fill: #ffffff;stroke: #000000;stroke-width: 6 } 
		.s1 { fill: #000000;stroke: #000000;stroke-width: 5 } 
		.s2 { fill: #3495bc;stroke: #000000;stroke-width: 6 } 
		.s3 { fill: url(#g1);stroke: #000000;stroke-width: 3 } 
		.s4 { fill: #ffffff;stroke: #000000;stroke-width: 2 } 
		.s5 { fill: #000000;stroke: #000000;stroke-width: 2 } 
		.s6 { fill: #3495bc;stroke: #000000;stroke-width: 2 } 
	</style>
	<g id="Layer">
		<path id="Layer" fill-rule="evenodd" class="s0" d="m247 473.7c-126.1 0-228-101.9-228-228 0-126.1 101.9-228 228-228 126.1 0 228 101.9 228 228 0 126.1-101.9 228-228 228z"/>
	</g>
	<g id="Layer">
		<path id="Shape 1" fill-rule="evenodd" class="s1" d="m245 23l5 444.6z"/>
		<path id="Shape 2" fill-rule="evenodd" class="s1" d="m25 248l443.7-1z"/>
		<path id="Shape 4" fill-rule="evenodd" class="s1" d="m447.7 148.3l-396.7 200.7z"/>
		<path id="Shape 5" fill-rule="evenodd" class="s1" d="m365.7 59l-229.7 379.3z"/>
		<path id="Shape 6" fill-rule="evenodd" class="s1" d="m128 57.6l234.3 377.7z"/>
		<path id="Shape 7" fill-rule="evenodd" class="s1" d="m440.3 353l-390.6-210.4z"/>
		<path id="Layer" fill-rule="evenodd" class="s2" d="m248.1 435.8c-105.3 0-190.4-85.1-190.4-190.4 0-105.3 85.1-190.4 190.4-190.4 105.3 0 190.4 85.1 190.4 190.4 0 105.3-85.1 190.4-190.4 190.4z"/>
		<path id="Layer copy" fill-rule="evenodd" class="s3" d="m125.9 222h248.2c32.5 0 58.9 11 58.9 24.4 0 13.1-26.4 24.1-58.9 24.1h-248.2c-32.5 0-58.9-11-58.9-24.1 0-13.4 26.4-24.4 58.9-24.4z"/>
	</g>
	<g id="Layer">
	</g>
	<g id="Layer">
		<path id="Layer" fill-rule="evenodd" class="s4" d="m250 272.1c-14.4 0-26-11.6-26-26 0-14.5 11.6-26.1 26-26.1 14.5 0 26.1 11.6 26.1 26.1 0 14.4-11.6 26-26.1 26z"/>
	</g>
	<g id="Layer">
		<path id="Shape 8" fill-rule="evenodd" class="s5" d="m167.3 222l0.2 48.5z"/>
		<path id="Shape 9" fill-rule="evenodd" class="s5" d="m201.8 222.9v47.6z"/>
		<path id="Shape 10" fill-rule="evenodd" class="s5" d="m133.5 223.5l-0.3 48.5z"/>
		<path id="Shape 11" fill-rule="evenodd" class="s5" d="m327.5 222v47z"/>
		<path id="Shape 12" fill-rule="evenodd" class="s5" d="m294.5 222.9v47z"/>
		<path id="Shape 15" fill-rule="evenodd" class="s6" d="m364.3 222l-0.3 49.7z"/>
	</g>
</svg>